<svg width="20" height="20" viewBox="0 0 20 20" fill="#5c5f62" xmlns="http://www.w3.org/2000/svg">
<g clip-path="url(#clip0_17_4)">
<path d="M15 11C15 11.5523 15.4477 12 16 12C16.5523 12 17 11.5523 17 11V10H18C18.5523 10 19 9.55229 19 9C19 8.44772 18.5523 8 18 8H17V7C17 6.44772 16.5523 6 16 6C15.4477 6 15 6.44772 15 7L15 8H14C13.4477 8 13 8.44771 13 9C13 9.55229 13.4477 10 14 10H15L15 11Z" fill="#5C5F62"/>
<path d="M12.3628 5.21918C12.3628 7.54936 10.4738 9.43835 8.14361 9.43835C5.81343 9.43835 3.92444 7.54936 3.92444 5.21918C3.92444 2.88899 5.81343 1 8.14361 1C10.4738 1 12.3628 2.88899 12.3628 5.21918Z" fill="#5C5F62"/>
<path d="M0.66954 14.469C2.05467 13.3796 4.81128 11.6164 8.14361 11.6164C11.4759 11.6164 14.2326 13.3796 15.6177 14.469C16.236 14.9552 16.4288 15.7772 16.1847 16.5249L15.8515 17.5452C15.5682 18.4129 14.7589 19 13.8461 19H2.4411C1.5283 19 0.719045 18.4129 0.435711 17.5452L0.102557 16.5249C-0.141596 15.7772 0.0512697 14.9552 0.66954 14.469Z" fill="#5c5f62"/>
</g>
<defs>
<clipPath id="clip0_17_4">
<rect width="20" height="20" fill="white"/>
</clipPath>
</defs>
</svg>
