<svg width="20" height="20" viewBox="0 0 20 20" fill="none" xmlns="http://www.w3.org/2000/svg">
<g id="apps_major">
<g id="Primary fill">
<path d="M9 9L1 9V2.5C1 1.67157 1.67157 1 2.5 1H9L9 9Z" fill="#5C5F62"/>
<path d="M9 11L9 19H2.5C1.67157 19 1 18.3284 1 17.5V11H9Z" fill="#5C5F62"/>
<path d="M11 11V19H17.5C18.3284 19 19 18.3284 19 17.5V11H11Z" fill="#5C5F62"/>
<path d="M15 1C15.5523 1 16 1.44772 16 2V4H18C18.5523 4 19 4.44772 19 5C19 5.55228 18.5523 6 18 6H16V8C16 8.55228 15.5523 9 15 9C14.4477 9 14 8.55228 14 8V6H12C11.4477 6 11 5.55228 11 5C11 4.44771 11.4477 4 12 4H14V2C14 1.44772 14.4477 1 15 1Z" fill="#5C5F62"/>
</g>
</g>
</svg>
