<svg width="141" height="18" viewBox="0 0 141 18" fill="none" xmlns="http://www.w3.org/2000/svg">
<g id="EcoCart Logo">
<g id="Group">
<path id="Vector" d="M39.7065 0.158936C40.4377 0.158936 40.8008 0.4959 40.8008 1.16983C40.8356 1.40089 40.8505 1.69453 40.8505 2.04594V2.33476C40.8505 3.75483 40.6516 4.46727 40.2537 4.46727L39.9552 4.51541C38.5874 4.41913 37.1699 4.37099 35.7026 4.37099H33.0515L32.8028 4.41913C32.768 5.63702 32.753 6.49387 32.753 6.98488H32.8028C33.3151 7.01857 33.7627 7.03301 34.1457 7.03301C35.1156 7.03301 36.4486 7.01857 38.1497 6.98488C38.6819 6.98488 38.9455 7.36998 38.9455 8.14018C38.9804 8.31829 38.9953 8.64082 38.9953 9.11257C38.9953 10.523 38.8311 11.2306 38.4979 11.2306C38.2989 11.2643 38.1995 11.298 38.1995 11.3413C38.1348 11.3028 38.0851 11.2836 38.0502 11.2836C36.3591 11.1873 35.1902 11.1392 34.5436 11.1392C34.3298 11.1392 33.6981 11.1536 32.6536 11.1873V11.7265C32.6536 12.0008 32.6685 12.4341 32.7033 13.0262C34.1955 13.0599 35.046 13.0743 35.2499 13.0743C38.0353 13.0406 39.5872 13.0262 39.9005 13.0262C40.4974 13.0262 40.7958 13.368 40.7958 14.0467C40.8306 14.2729 40.8456 14.5907 40.8456 15.0094V15.2501C40.8456 16.6076 40.6615 17.2864 40.2984 17.2864C40.2387 17.3201 40.1592 17.3345 40.0497 17.3345L35.7971 17.1901C34.0811 17.1901 32.3502 17.2382 30.5993 17.3345H30.1517C29.0176 17.3345 28.4506 17.1901 28.4506 16.9013C28.4158 16.7713 28.4009 16.6461 28.4009 16.5162C28.6645 11.4713 28.7988 8.66007 28.7988 8.09205C28.7988 7.28814 28.6844 5.06418 28.4506 1.41052V1.16983C28.4506 0.592176 28.7192 0.288908 29.2564 0.255211L30.4999 0.207073H36.9908C37.6523 0.20226 38.5526 0.187818 39.7065 0.158936Z" fill="#00924A"/>
<path id="Vector_2" d="M50.848 0.0482178C53.4444 0.0482178 55.5136 1.02542 57.0654 2.98462C57.2992 3.36973 57.4136 3.69225 57.4136 3.94738C57.4136 4.43839 56.4835 4.99678 54.6282 5.6322C54.3148 5.72848 54.1308 5.77662 54.0811 5.77662C53.0465 4.9679 52.3153 4.5491 51.8926 4.52503C51.6339 4.43839 51.1863 4.37099 50.5496 4.33248C49.0176 4.33248 47.988 4.95827 47.4658 6.20986C47.1325 6.90785 46.9684 7.75989 46.9684 8.76116C46.9684 10.3256 47.6498 11.6254 49.0077 12.6603C49.3957 12.8529 49.8433 12.9491 50.3507 12.9491H50.4004C51.619 12.9491 52.8475 12.4052 54.0811 11.3125L54.3795 11.2162C56.4685 11.6639 57.5131 12.3859 57.5131 13.3824C57.5131 13.8782 56.9162 14.6195 55.7225 15.5967C53.9716 16.752 52.2507 17.3297 50.5496 17.3297C47.8886 17.3297 45.7846 16.1599 44.2328 13.8156C43.1733 12.0971 42.6411 10.446 42.6411 8.85744C42.6411 4.9679 44.2676 2.20479 47.5155 0.577734C48.7242 0.226328 49.8383 0.0482178 50.848 0.0482178Z" fill="#00924A"/>
<path id="Vector_3" d="M67.4013 0C69.2665 0 71.1218 0.61135 72.972 1.82924C74.6632 3.33114 75.5087 5.49734 75.5087 8.32784V9.48315C75.5087 11.9622 74.3796 14.0947 72.1265 15.8855C70.4105 16.8482 68.8039 17.3296 67.3018 17.3296C65.745 17.3296 64.1185 16.7664 62.4274 15.6448C60.403 13.7433 59.3933 11.3701 59.3933 8.52039C59.3933 4.54902 61.0994 1.887 64.5164 0.529516C65.6107 0.17811 66.5706 0 67.4013 0ZM63.8698 8.32784V8.56853C63.8698 10.8936 64.7154 12.3377 66.4065 12.9009C66.7646 12.9635 67.078 12.9972 67.3515 12.9972C68.7293 12.9972 69.7887 12.4051 70.5348 11.2161C70.8681 10.6481 71.0322 9.92601 71.0322 9.04991V8.6648C71.0322 6.44084 70.5199 5.09298 69.4903 4.62123C69.1322 4.46237 68.5851 4.34684 67.8489 4.28426H67.451C65.8942 4.28426 64.8298 4.91006 64.2677 6.16164C63.9991 6.74892 63.8698 7.47099 63.8698 8.32784Z" fill="#00924A"/>
<path id="Vector_4" d="M86.0036 0.0482178C88.5999 0.0482178 90.6691 1.02542 92.2209 2.98462C92.4547 3.36973 92.5691 3.69225 92.5691 3.94738C92.5691 4.43839 91.639 4.99678 89.7837 5.6322C89.4704 5.72848 89.2863 5.77662 89.2366 5.77662C88.202 4.9679 87.4709 4.5491 87.0481 4.52503C86.7894 4.43839 86.3418 4.37099 85.7051 4.33248C84.1732 4.33248 83.1436 4.95827 82.6213 6.20986C82.2881 6.90785 82.1239 7.75989 82.1239 8.76116C82.1239 10.3256 82.8053 11.6254 84.1632 12.6603C84.5512 12.8529 84.9988 12.9491 85.5062 12.9491H85.5559C86.7745 12.9491 88.0031 12.4052 89.2366 11.3125L89.535 11.2162C91.6241 11.6639 92.6686 12.3859 92.6686 13.3824C92.6686 13.8782 92.0717 14.6195 90.878 15.5967C89.1272 16.752 87.4062 17.3297 85.7051 17.3297C83.0441 17.3297 80.9401 16.1599 79.3883 13.8156C78.3288 12.0971 77.7966 10.446 77.7966 8.85744C77.7966 4.9679 79.4231 2.20479 82.671 0.577734C83.8797 0.226328 84.9889 0.0482178 86.0036 0.0482178Z" fill="#00924A"/>
<path id="Vector_5" d="M101.771 0.0482178H101.97C103.064 0.0482178 103.611 0.25521 103.611 0.674009C105.367 6.60459 107.178 11.3028 109.033 14.7784C109.197 15.1779 109.281 15.5005 109.281 15.7411C109.281 16.237 108.187 16.7665 105.999 17.3297H105.75C105.402 17.3297 105.004 16.6413 104.556 15.2598L104.457 15.2116C102.567 15.1153 101.174 15.0672 100.279 15.0672C99.9952 15.0672 99.5476 15.0817 98.9358 15.1153C98.4384 16.5932 98.0255 17.3297 97.6923 17.3297H97.5928C95.9912 17.0409 94.882 16.6076 94.2603 16.03C94.1608 15.8952 94.1111 15.7652 94.1111 15.6449C94.1111 15.4042 94.8721 13.7049 96.3991 10.5423C97.2596 8.55417 98.3389 5.42521 99.6321 1.15539C99.8211 0.481458 100.154 0.144493 100.627 0.144493C100.801 0.0819142 101.179 0.0482178 101.771 0.0482178ZM100.328 11.3125C100.94 11.3462 101.388 11.3606 101.671 11.3606H103.114C102.681 10.0031 102.233 8.75153 101.771 7.60585H101.721C101.572 7.76471 101.109 8.95371 100.328 11.168V11.3125Z" fill="#00924A"/>
<path id="Vector_6" d="M115.782 0.0963135C118.652 0.0963135 121.07 0.640271 123.044 1.733C123.954 2.46469 124.551 3.37931 124.835 4.47685C124.934 4.73198 124.984 4.97267 124.984 5.19892V5.96913C124.984 7.69246 123.974 9.17029 121.95 10.3978V10.4941C122.895 12.2992 123.755 13.8541 124.536 15.1634V15.5004C123.84 16.3043 122.945 16.882 121.85 17.2334C121.562 17.2959 121.363 17.3296 121.254 17.3296C120.955 17.3296 120.343 16.2706 119.413 14.1526C118.617 12.6699 118.12 11.8179 117.921 11.6012C117.1 11.6975 116.454 11.7457 115.981 11.7457H115.285V11.7938C115.285 11.9478 115.32 13.4209 115.384 16.2225C115.384 16.959 115.051 17.3296 114.39 17.3296H112.052C111.39 17.3296 111.057 17.1371 111.057 16.752L111.007 16.415C111.271 12.5014 111.405 9.72387 111.405 8.08719C111.405 6.85967 111.291 4.61164 111.057 1.3479C111.057 0.803939 111.341 0.529554 111.903 0.529554C113.211 0.240727 114.504 0.0963135 115.782 0.0963135ZM115.384 4.71754H115.434C115.399 4.78012 115.384 4.82826 115.384 4.86196C115.384 5.35296 115.369 6.20019 115.335 7.41326C117.697 7.18701 119.105 6.93188 119.562 6.64305C120.05 6.47457 120.383 6.24832 120.557 5.96913V5.48775C120.557 4.99674 119.398 4.65978 117.075 4.47685C115.946 4.47685 115.384 4.55869 115.384 4.71754Z" fill="#00924A"/>
<path id="Vector_7" d="M128.466 0C132.48 0.0336965 134.619 0.0625791 134.882 0.0962756C135.265 0.0625791 135.763 0.0481378 136.374 0.0481378H138.016C139.841 0.0481378 140.751 0.17811 140.751 0.43324C140.915 0.712439 141 1.21307 141 1.92551V2.50317C141 3.78844 140.766 4.42868 140.304 4.42868L139.806 4.47682C139.294 4.47682 137.981 4.42868 135.877 4.3324C135.777 6.66709 135.728 8.5589 135.728 10.0127V11.0236C135.792 14.0466 135.827 15.717 135.827 16.0299V16.2224C135.827 16.9301 135.494 17.2815 134.832 17.2815C134.673 17.3152 134.459 17.3296 134.186 17.3296H132.843C131.948 17.3296 131.5 17.1371 131.5 16.752C131.5 16.7183 131.485 16.5931 131.45 16.3669C131.684 13.1561 131.833 10.3833 131.898 8.03901C131.858 6.45047 131.788 5.18444 131.699 4.23613C131.291 4.23613 129.948 4.28426 127.67 4.38054C126.874 4.38054 126.476 4.12541 126.476 3.61034C126.441 3.30707 126.427 3.01824 126.427 2.74385V1.396C126.427 0.563212 126.591 0.144413 126.924 0.144413C127.173 0.0818343 127.685 0.0336965 128.466 0Z" fill="#00924A"/>
</g>
<g id="Group_2">
<g id="Group_3">
<path id="Vector_8" d="M7.79417 17.2189L6.59546 9.67567L22.1836 0.389893L12.0369 13.6807L7.79914 17.2092" fill="#00924A"/>
</g>
<g id="Group_4">
<path id="Vector_9" d="M0 5.61284L6.59539 9.67568L22.1836 0.389893L0 5.61284Z" fill="#01C464"/>
</g>
<g id="Group_5">
<path id="Vector_10" d="M22.1834 0.389893L16.7868 17.2189L8.99268 11.4134L22.1834 0.389893Z" fill="#01C464"/>
</g>
<g id="Group_6">
<path id="Vector_11" d="M8.9929 11.4135L7.79419 17.2189L12.0369 13.6856L8.9929 11.4135Z" fill="#006C37"/>
</g>
</g>
</g>
</svg>
