<svg width="715" height="293" viewBox="0 0 715 293" fill="none" xmlns="http://www.w3.org/2000/svg">
<rect width="715" height="293" fill="#E5E5E5"/>
<g clip-path="url(#clip0_0_1)">
<rect width="1440" height="1024" transform="translate(-291 -515)" fill="#F6F6F7"/>
<g filter="url(#filter0_dd_0_1)">
<rect x="1" y="1" width="713" height="289" rx="8" fill="white"/>
<text fill="#9C9C9C" xml:space="preserve" style="white-space: pre" font-family="Montserrat" font-size="12" letter-spacing="0.4px"><tspan x="59.9457" y="253.302">Jul</tspan></text>
<rect x="68" y="33" width="1" height="200" fill="#E5E5E5"/>
<rect x="53" y="232.559" width="608" height="0.983047" fill="#E5E5E5"/>
<text fill="#9C9C9C" xml:space="preserve" style="white-space: pre" font-family="Montserrat" font-size="12" letter-spacing="0.4px"><tspan x="152.207" y="253.302">Aug</tspan></text>
<rect x="164" y="33" width="1" height="200" fill="#E5E5E5"/>
<text fill="#9C9C9C" xml:space="preserve" style="white-space: pre" font-family="Montserrat" font-size="12" letter-spacing="0.4px"><tspan x="249.221" y="253.302">Sep</tspan></text>
<rect x="260" y="33" width="1" height="200" fill="#E5E5E5"/>
<text fill="#9C9C9C" xml:space="preserve" style="white-space: pre" font-family="Montserrat" font-size="12" letter-spacing="0.4px"><tspan x="344.793" y="253.302">Nov</tspan></text>
<rect x="356" y="33" width="1" height="200" fill="#E5E5E5"/>
<text fill="#9C9C9C" xml:space="preserve" style="white-space: pre" font-family="Montserrat" font-size="12" letter-spacing="0.4px"><tspan x="440.641" y="253.302">Dec</tspan></text>
<rect x="452" y="33" width="1" height="200" fill="#E5E5E5"/>
<text fill="#9C9C9C" xml:space="preserve" style="white-space: pre" font-family="Montserrat" font-size="12" letter-spacing="0.4px"><tspan x="537.995" y="253.302">Jan</tspan></text>
<rect x="548" y="33" width="1" height="200" fill="#E5E5E5"/>
<text fill="#9C9C9C" xml:space="preserve" style="white-space: pre" font-family="Montserrat" font-size="12" letter-spacing="0.4px"><tspan x="633.221" y="253.302">Feb</tspan></text>
<rect x="644" y="33" width="1" height="200" fill="#E5E5E5"/>
<path d="M86.5694 166.888C83.375 166.888 83.375 174.412 78.5833 174.412C77.2755 174.412 71.4011 174.412 69.0051 174.765C69.0045 182.584 69.0051 226.963 69 233.136H644V174.765C639.213 173.942 637.616 172.296 634.417 172.296C629.625 172.296 629.625 169.239 626.431 169.239C621.639 169.239 621.639 168.063 616.847 168.063C612.056 168.063 612.056 172.178 607.264 172.178C602.472 172.178 602.472 157.952 597.681 157.952C594.486 157.952 594.486 161.127 589.694 161.127C584.903 161.127 584.903 160.891 580.111 160.891C575.319 160.891 575.319 147.37 570.528 147.37C565.736 147.37 565.736 136.789 562.542 136.789C557.75 136.789 557.75 161.832 552.958 161.832C548.167 161.832 548.167 133.497 543.375 133.497C538.583 133.497 538.583 155.248 533.792 155.248C530.597 155.248 530.597 129.264 525.806 129.264C521.014 129.264 521.014 122.209 516.222 122.209C511.431 122.209 511.431 143.138 506.639 143.138C501.847 143.138 501.847 128.088 498.653 128.088C493.861 128.088 493.861 129.969 489.069 129.969C484.278 129.969 484.278 159.128 479.486 159.128C474.694 159.128 474.694 135.025 469.903 135.025C466.708 135.025 466.708 136.201 461.917 136.201C457.125 136.201 457.125 162.067 452.333 162.067C447.542 162.067 447.542 99.7528 442.75 99.7528C437.958 99.7528 437.958 109.747 434.764 109.747C429.972 109.747 429.972 134.202 425.181 134.202C420.389 134.202 420.389 109.159 415.597 109.159C410.806 109.159 410.806 147.841 406.014 147.841C402.819 147.841 402.819 160.068 398.028 160.068C393.236 160.068 393.236 172.649 388.444 172.649C383.653 172.649 383.653 147.841 378.861 147.841C374.069 147.841 374.069 94.9323 370.875 94.9323C366.083 94.9323 366.083 169.474 361.292 169.474C356.5 169.474 356.5 148.193 351.708 148.193C346.917 148.193 346.917 136.554 342.125 136.554C338.931 136.554 338.931 130.792 334.139 130.792C329.347 130.792 329.347 116.566 324.556 116.566C319.764 116.566 319.764 111.51 314.972 111.51C310.181 111.51 310.181 113.627 306.986 113.627C302.194 113.627 302.194 163.713 297.403 163.713C292.611 163.713 292.611 174.648 287.819 174.648C283.028 174.648 283.028 163.948 278.236 163.948C275.042 163.948 275.042 140.551 270.25 140.551C265.458 140.551 265.458 156.659 260.667 156.659C255.875 156.659 255.875 165.006 251.083 165.006C246.292 165.006 246.292 134.32 243.097 134.32C238.306 134.32 238.306 153.719 233.514 153.719C228.722 153.719 228.722 165.829 223.931 165.829C219.139 165.829 219.139 131.498 214.347 131.498C211.153 131.498 211.153 113.156 206.361 113.156C201.569 113.156 201.569 121.269 196.778 121.269C191.986 121.269 191.986 165.947 187.194 165.947C182.403 165.947 182.403 125.266 179.208 125.266C174.417 125.266 174.417 160.304 169.625 160.304C164.833 160.304 164.833 144.431 160.042 144.431C155.25 144.431 155.25 137.259 150.458 137.259C147.264 137.259 147.264 152.896 142.472 152.896C137.681 152.896 137.681 141.727 132.889 141.727C128.097 141.727 128.097 174.412 123.306 174.412C118.514 174.412 118.514 166.3 115.319 166.3C110.528 166.3 110.528 157.717 105.736 157.717C100.944 157.717 100.944 166.77 96.1528 166.77C91.3611 166.77 91.3611 166.888 86.5694 166.888Z" fill="#00924A"/>
<path d="M86.5694 166.888C83.375 166.888 83.375 174.412 78.5833 174.412C77.2755 174.412 71.4011 174.412 69.0051 174.765C69.0045 182.584 69.0051 226.963 69 233.136H644V174.765C639.213 173.942 637.616 172.296 634.417 172.296C629.625 172.296 629.625 169.239 626.431 169.239C621.639 169.239 621.639 168.063 616.847 168.063C612.056 168.063 612.056 172.178 607.264 172.178C602.472 172.178 602.472 157.952 597.681 157.952C594.486 157.952 594.486 161.127 589.694 161.127C584.903 161.127 584.903 160.891 580.111 160.891C575.319 160.891 575.319 147.37 570.528 147.37C565.736 147.37 565.736 136.789 562.542 136.789C557.75 136.789 557.75 161.832 552.958 161.832C548.167 161.832 548.167 133.497 543.375 133.497C538.583 133.497 538.583 155.248 533.792 155.248C530.597 155.248 530.597 129.264 525.806 129.264C521.014 129.264 521.014 122.209 516.222 122.209C511.431 122.209 511.431 143.138 506.639 143.138C501.847 143.138 501.847 128.088 498.653 128.088C493.861 128.088 493.861 129.969 489.069 129.969C484.278 129.969 484.278 159.128 479.486 159.128C474.694 159.128 474.694 135.025 469.903 135.025C466.708 135.025 466.708 136.201 461.917 136.201C457.125 136.201 457.125 162.067 452.333 162.067C447.542 162.067 447.542 99.7528 442.75 99.7528C437.958 99.7528 437.958 109.747 434.764 109.747C429.972 109.747 429.972 134.202 425.181 134.202C420.389 134.202 420.389 109.159 415.597 109.159C410.806 109.159 410.806 147.841 406.014 147.841C402.819 147.841 402.819 160.068 398.028 160.068C393.236 160.068 393.236 172.649 388.444 172.649C383.653 172.649 383.653 147.841 378.861 147.841C374.069 147.841 374.069 94.9323 370.875 94.9323C366.083 94.9323 366.083 169.474 361.292 169.474C356.5 169.474 356.5 148.193 351.708 148.193C346.917 148.193 346.917 136.554 342.125 136.554C338.931 136.554 338.931 130.792 334.139 130.792C329.347 130.792 329.347 116.566 324.556 116.566C319.764 116.566 319.764 111.51 314.972 111.51C310.181 111.51 310.181 113.627 306.986 113.627C302.194 113.627 302.194 163.713 297.403 163.713C292.611 163.713 292.611 174.648 287.819 174.648C283.028 174.648 283.028 163.948 278.236 163.948C275.042 163.948 275.042 140.551 270.25 140.551C265.458 140.551 265.458 156.659 260.667 156.659C255.875 156.659 255.875 165.006 251.083 165.006C246.292 165.006 246.292 134.32 243.097 134.32C238.306 134.32 238.306 153.719 233.514 153.719C228.722 153.719 228.722 165.829 223.931 165.829C219.139 165.829 219.139 131.498 214.347 131.498C211.153 131.498 211.153 113.156 206.361 113.156C201.569 113.156 201.569 121.269 196.778 121.269C191.986 121.269 191.986 165.947 187.194 165.947C182.403 165.947 182.403 125.266 179.208 125.266C174.417 125.266 174.417 160.304 169.625 160.304C164.833 160.304 164.833 144.431 160.042 144.431C155.25 144.431 155.25 137.259 150.458 137.259C147.264 137.259 147.264 152.896 142.472 152.896C137.681 152.896 137.681 141.727 132.889 141.727C128.097 141.727 128.097 174.412 123.306 174.412C118.514 174.412 118.514 166.3 115.319 166.3C110.528 166.3 110.528 157.717 105.736 157.717C100.944 157.717 100.944 166.77 96.1528 166.77C91.3611 166.77 91.3611 166.888 86.5694 166.888Z" fill="url(#paint0_linear_0_1)"/>
<path d="M69 174.765C73.7917 174.765 73.7917 174.412 78.5833 174.412C83.375 174.412 83.375 166.888 86.5694 166.888C91.3611 166.888 91.3611 166.77 96.1528 166.77C100.944 166.77 100.944 157.717 105.736 157.717C110.528 157.717 110.528 166.3 115.319 166.3C118.514 166.3 118.514 174.412 123.306 174.412C128.097 174.412 128.097 141.727 132.889 141.727C137.681 141.727 137.681 152.896 142.472 152.896C147.264 152.896 147.264 137.259 150.458 137.259C155.25 137.259 155.25 144.431 160.042 144.431C164.833 144.431 164.833 160.304 169.625 160.304C174.417 160.304 174.417 125.266 179.208 125.266C182.403 125.266 182.403 165.947 187.194 165.947C191.986 165.947 191.986 121.269 196.778 121.269C201.569 121.269 201.569 113.156 206.361 113.156C211.153 113.156 211.153 131.498 214.347 131.498C219.139 131.498 219.139 165.829 223.931 165.829C228.722 165.829 228.722 153.719 233.514 153.719C238.306 153.719 238.306 134.32 243.097 134.32C246.292 134.32 246.292 165.006 251.083 165.006C255.875 165.006 255.875 156.659 260.667 156.659C265.458 156.659 265.458 140.551 270.25 140.551C275.042 140.551 275.042 163.948 278.236 163.948C283.028 163.948 283.028 174.648 287.819 174.648C292.611 174.648 292.611 163.713 297.403 163.713C302.194 163.713 302.194 113.627 306.986 113.627C310.181 113.627 310.181 111.51 314.972 111.51C319.764 111.51 319.764 116.566 324.556 116.566C329.347 116.566 329.347 130.792 334.139 130.792C338.931 130.792 338.931 136.554 342.125 136.554C346.917 136.554 346.917 148.193 351.708 148.193C356.5 148.193 356.5 169.474 361.292 169.474C366.083 169.474 366.083 94.9323 370.875 94.9323C374.069 94.9323 374.069 147.841 378.861 147.841C383.653 147.841 383.653 172.649 388.444 172.649C393.236 172.649 393.236 160.068 398.028 160.068C402.819 160.068 402.819 147.841 406.014 147.841C410.806 147.841 410.806 109.159 415.597 109.159C420.389 109.159 420.389 134.202 425.181 134.202C429.972 134.202 429.972 109.747 434.764 109.747C437.958 109.747 437.958 99.7528 442.75 99.7528C447.542 99.7528 447.542 162.067 452.333 162.067C457.125 162.067 457.125 136.201 461.917 136.201C466.708 136.201 466.708 135.025 469.903 135.025C474.694 135.025 474.694 159.128 479.486 159.128C484.278 159.128 484.278 129.969 489.069 129.969C493.861 129.969 493.861 128.088 498.653 128.088C501.847 128.088 501.847 143.138 506.639 143.138C511.431 143.138 511.431 122.209 516.222 122.209C521.014 122.209 521.014 129.264 525.806 129.264C530.597 129.264 530.597 155.248 533.792 155.248C538.583 155.248 538.583 133.497 543.375 133.497C548.167 133.497 548.167 161.832 552.958 161.832C557.75 161.832 557.75 136.789 562.542 136.789C565.736 136.789 565.736 147.37 570.528 147.37C575.319 147.37 575.319 160.891 580.111 160.891C584.903 160.891 584.903 161.127 589.694 161.127C594.486 161.127 594.486 157.952 597.681 157.952C602.472 157.952 602.472 172.179 607.264 172.179C612.056 172.179 612.056 168.063 616.847 168.063C621.639 168.063 621.639 169.239 626.431 169.239C629.625 169.239 629.625 172.296 634.417 172.296C639.208 172.296 639.208 174.765 644 174.765" stroke="#50B482"/>
</g>
</g>
<defs>
<filter id="filter0_dd_0_1" x="0" y="0" width="715" height="293" filterUnits="userSpaceOnUse" color-interpolation-filters="sRGB">
<feFlood flood-opacity="0" result="BackgroundImageFix"/>
<feColorMatrix in="SourceAlpha" type="matrix" values="0 0 0 0 0 0 0 0 0 0 0 0 0 0 0 0 0 0 127 0" result="hardAlpha"/>
<feOffset/>
<feGaussianBlur stdDeviation="0.5"/>
<feColorMatrix type="matrix" values="0 0 0 0 0 0 0 0 0 0 0 0 0 0 0 0 0 0 0.25 0"/>
<feBlend mode="normal" in2="BackgroundImageFix" result="effect1_dropShadow_0_1"/>
<feColorMatrix in="SourceAlpha" type="matrix" values="0 0 0 0 0 0 0 0 0 0 0 0 0 0 0 0 0 0 127 0" result="hardAlpha"/>
<feOffset dy="2"/>
<feGaussianBlur stdDeviation="0.5"/>
<feColorMatrix type="matrix" values="0 0 0 0 0 0 0 0 0 0 0 0 0 0 0 0 0 0 0.05 0"/>
<feBlend mode="normal" in2="effect1_dropShadow_0_1" result="effect2_dropShadow_0_1"/>
<feBlend mode="normal" in="SourceGraphic" in2="effect2_dropShadow_0_1" result="shape"/>
</filter>
<linearGradient id="paint0_linear_0_1" x1="356.505" y1="94.9323" x2="356.505" y2="233.136" gradientUnits="userSpaceOnUse">
<stop stop-color="white" stop-opacity="0"/>
<stop offset="1" stop-color="white"/>
</linearGradient>
<clipPath id="clip0_0_1">
<rect width="1440" height="1024" fill="white" transform="translate(-291 -515)"/>
</clipPath>
</defs>
</svg>
