<svg width="20" height="20" viewBox="0 0 20 20" fill="none" xmlns="http://www.w3.org/2000/svg">
<g id="orders_major">
<g id="Primary fill">
<path d="M11 1C11 0.447715 10.5523 0 10 0C9.44771 0 9 0.447715 9 1V8.58579L7.70711 7.29289C7.31658 6.90237 6.68342 6.90237 6.29289 7.29289C5.90237 7.68342 5.90237 8.31658 6.29289 8.70711L9.29289 11.7071C9.48042 11.8946 9.73478 12 10 12C10.2652 12 10.5196 11.8946 10.7071 11.7071L13.7071 8.70711C14.0976 8.31658 14.0976 7.68342 13.7071 7.29289C13.3166 6.90237 12.6834 6.90237 12.2929 7.29289L11 8.58578V1Z" fill="#5C5F62"/>
<path d="M3 14V3H7V1H2.5C1.67157 1 1 1.67157 1 2.5V17.5C1 18.3284 1.67157 19 2.5 19H17.5C18.3284 19 19 18.3284 19 17.5V2.5C19 1.67157 18.3284 1 17.5 1H13C13 1.66667 13 2.33333 13 3H17V14H13.5C12.7252 14 12.1123 14.6623 11.5742 15.2439C11.5369 15.2841 11.5 15.324 11.4634 15.3632C11.0983 15.755 10.5778 16 10 16C9.42223 16 8.90168 15.755 8.53657 15.3632C8.5 15.324 8.4631 15.2841 8.42584 15.2439C7.88768 14.6623 7.27479 14 6.5 14H3Z" fill="#5C5F62"/>
</g>
</g>
</svg>
