<svg width="24" height="26" viewBox="0 0 24 26" fill="none" xmlns="http://www.w3.org/2000/svg">
<g id="settings_minor">
<path id="Primary fill" fill-rule="evenodd" clip-rule="evenodd" d="M11.6774 16.3704C9.74249 16.3704 8.17422 14.6792 8.17422 12.5926C8.17422 10.506 9.74249 8.81485 11.6774 8.81485C13.6124 8.81485 15.1807 10.506 15.1807 12.5926C15.1807 14.6792 13.6124 16.3704 11.6774 16.3704ZM20.4075 14.8014C18.7796 13.8519 18.7796 11.3334 20.4075 10.3839C20.6901 10.2189 20.8968 9.93559 20.9797 9.60189C21.0626 9.26693 21.0147 8.91056 20.8465 8.61589L19.6006 6.43359C19.2759 5.86567 18.5963 5.66922 18.051 5.98655L17.529 6.29255C15.9771 7.19796 14.09 5.9853 14.09 4.08255V3.77781C14.09 3.0827 13.568 2.51855 12.9223 2.51855H10.4326C9.78687 2.51855 9.26489 3.0827 9.26489 3.77781V4.08255C9.26489 5.9853 7.37782 7.19796 5.82589 6.29255L5.30391 5.98655C4.75857 5.66922 4.07894 5.86567 3.75431 6.43359L2.50833 8.61589C2.34018 8.91056 2.2923 9.26693 2.37521 9.60189C2.45812 9.93559 2.66481 10.2189 2.9474 10.3839C4.57524 11.3334 4.57524 13.8519 2.9474 14.8014C2.66481 14.9663 2.45812 15.2497 2.37521 15.5834C2.2923 15.9183 2.34018 16.2747 2.50833 16.5694L3.75431 18.7517C4.07894 19.3196 4.75857 19.516 5.30391 19.1987L5.82589 18.8927C7.37782 17.9873 9.26489 19.2 9.26489 21.1027V21.4074C9.26489 22.1026 9.78687 22.6667 10.4326 22.6667H12.9223C13.568 22.6667 14.09 22.1026 14.09 21.4074V21.1027C14.09 19.2 15.9771 17.9873 17.529 18.8927L18.051 19.1987C18.5963 19.516 19.2759 19.3196 19.6006 18.7517L20.8465 16.5694C21.0147 16.2747 21.0626 15.9183 20.9797 15.5834C20.8968 15.2497 20.6901 14.9663 20.4075 14.8014Z" fill="#5c5f62"/>
</g>
</svg>
